<?xml version="1.0" encoding="UTF-8" standalone="no"?><!DOCTYPE svg PUBLIC "-//W3C//DTD SVG 1.1//EN" "http://www.w3.org/Graphics/SVG/1.1/DTD/svg11.dtd"><svg width="100%" height="100%" viewBox="0 0 460 460" version="1.1" xmlns="http://www.w3.org/2000/svg" xmlns:xlink="http://www.w3.org/1999/xlink" xml:space="preserve" xmlns:serif="http://www.serif.com/" style="fill-rule:evenodd;clip-rule:evenodd;stroke-linejoin:round;stroke-miterlimit:2;"><circle cx="229.735" cy="229.735" r="183.477" style="fill:#3865ab;"/><path d="M229.735,-0c126.794,-0 229.735,102.941 229.735,229.735c0,126.794 -102.941,229.735 -229.735,229.735c-126.794,0 -229.735,-102.941 -229.735,-229.735c0,-126.794 102.941,-229.735 229.735,-229.735Zm0,22.974c114.115,-0 206.762,92.646 206.762,206.761c-0,114.115 -92.647,206.762 -206.762,206.762c-114.115,-0 -206.761,-92.647 -206.761,-206.762c-0,-114.115 92.646,-206.761 206.761,-206.761Z" style="fill:#84aff1;"/><path d="M238.537,206.507l77.164,-0l-134.519,164.077l39.751,-117.621l-77.164,0l134.519,-164.077l-39.751,117.621Z" style="fill:url(#_Linear1);"/><defs><linearGradient id="_Linear1" x1="0" y1="0" x2="1" y2="0" gradientUnits="userSpaceOnUse" gradientTransform="matrix(1.05278e-14,281.699,-171.933,1.72491e-14,229.735,88.8857)"><stop offset="0" style="stop-color:#f2cc0c;stop-opacity:1"/><stop offset="1" style="stop-color:#ff9830;stop-opacity:1"/></linearGradient></defs></svg>