<svg width="122" height="83" viewBox="0 0 122 83" fill="none" xmlns="http://www.w3.org/2000/svg">
<rect x="22.915" y="18.9824" width="98.1561" height="63.6777" fill="#9D70F9"/>
<rect x="22.915" width="98.1561" height="18.9824" fill="black"/>
<circle cx="33.6945" cy="9.17207" r="3.36445" fill="white"/>
<circle cx="44.423" cy="9.17207" r="3.36445" fill="white"/>
<circle cx="55.1525" cy="9.17207" r="3.36445" fill="white"/>
<rect x="54.0254" y="33.376" width="49.3179" height="7.28895" fill="white"/>
<rect x="71.7773" y="47.1768" width="31.5654" height="7.28895" fill="white"/>
<rect x="54.0254" y="60.9775" width="49.3179" height="7.28895" fill="white"/>
<path d="M54.0254 51.0762L0.288555 82.6602V19.4922L54.0254 51.0762Z" fill="#FF5656"/>
<path d="M9.28027 65.2132V61.545C9.85155 61.545 10.3677 61.4097 10.8287 61.1391C11.2897 60.8786 11.6556 60.5178 11.9262 60.0567C12.1968 59.6057 12.3321 59.0996 12.3321 58.5384V42.663H16.0002V58.5384C16.0002 59.7611 15.6996 60.8786 15.0982 61.8908C14.5069 62.9031 13.7001 63.7099 12.6778 64.3112C11.6656 64.9125 10.5331 65.2132 9.28027 65.2132ZM14.1962 40.7237C13.655 40.7237 13.199 40.5483 12.8282 40.1975C12.4573 39.8367 12.2719 39.3857 12.2719 38.8445C12.2719 38.3133 12.4573 37.8673 12.8282 37.5065C13.199 37.1457 13.65 36.9653 14.1812 36.9653C14.7124 36.9653 15.1584 37.1457 15.5192 37.5065C15.89 37.8673 16.0754 38.3133 16.0754 38.8445C16.0754 39.3857 15.895 39.8367 15.5342 40.1975C15.1734 40.5483 14.7274 40.7237 14.1962 40.7237Z" fill="white"/>
<path d="M24.033 57.9671C23.2513 57.917 22.4946 57.7616 21.763 57.501C21.0414 57.2304 20.4 56.8646 19.8387 56.4036C19.2775 55.9426 18.8465 55.3914 18.5458 54.7499L21.6427 53.427C21.763 53.6274 21.9584 53.8429 22.229 54.0734C22.4996 54.2939 22.8203 54.4793 23.1912 54.6297C23.572 54.78 23.9879 54.8552 24.4389 54.8552C24.8198 54.8552 25.1806 54.805 25.5214 54.7048C25.8721 54.5946 26.1528 54.4292 26.3632 54.2087C26.5837 53.9882 26.694 53.7026 26.694 53.3518C26.694 52.981 26.5637 52.6953 26.3031 52.4949C26.0525 52.2844 25.7318 52.1291 25.341 52.0289C24.9601 51.9186 24.5893 51.8184 24.2285 51.7282C23.2764 51.5378 22.3894 51.2421 21.5675 50.8412C20.7557 50.4403 20.0993 49.9242 19.5982 49.2928C19.1071 48.6513 18.8615 47.8796 18.8615 46.9776C18.8615 45.9854 19.1221 45.1285 19.6433 44.4069C20.1744 43.6853 20.861 43.1291 21.7029 42.7382C22.5547 42.3473 23.4718 42.1519 24.454 42.1519C25.6466 42.1519 26.7391 42.4024 27.7313 42.9036C28.7335 43.3946 29.5253 44.0912 30.1066 44.9932L27.2051 46.707C27.0648 46.4665 26.8694 46.246 26.6188 46.0455C26.3682 45.8351 26.0826 45.6647 25.7619 45.5344C25.4412 45.3941 25.1054 45.3139 24.7546 45.2939C24.3036 45.2738 23.8927 45.3139 23.5219 45.4141C23.1511 45.5144 22.8504 45.6847 22.6199 45.9253C22.3994 46.1658 22.2892 46.4865 22.2892 46.8874C22.2892 47.2683 22.4395 47.5539 22.7402 47.7443C23.0408 47.9247 23.4016 48.065 23.8226 48.1653C24.2535 48.2655 24.6644 48.3757 25.0553 48.496C25.9373 48.7866 26.7641 49.1424 27.5358 49.5634C28.3176 49.9843 28.944 50.5005 29.415 51.1118C29.8861 51.7232 30.1116 52.4548 30.0915 53.3067C30.0915 54.2789 29.8009 55.1308 29.2196 55.8624C28.6383 56.584 27.8866 57.1352 26.9646 57.5161C26.0525 57.8969 25.0754 58.0473 24.033 57.9671Z" fill="white"/>
</svg>
